<?xml version="1.0" standalone="no"?>
<!DOCTYPE svg PUBLIC "-//W3C//DTD SVG 20010904//EN"
 "http://www.w3.org/TR/2001/REC-SVG-20010904/DTD/svg10.dtd">
<svg version="1.0" xmlns="http://www.w3.org/2000/svg"
 width="592.000000pt" height="592.000000pt" viewBox="0 0 592.000000 592.000000"
 preserveAspectRatio="xMidYMid meet">
<metadata>
Created by potrace 1.14, written by Peter Selinger 2001-2017
</metadata>
<g transform="translate(0.000000,592.000000) scale(0.100000,-0.100000)"
fill="#000000" stroke="none">
<path d="M3655 5170 c-91 -28 -161 -72 -273 -175 -47 -43 -106 -121 -139 -185
-26 -51 -30 -55 -68 -57 -22 -1 -55 -5 -75 -9 -19 -4 -40 -8 -46 -10 -52 -10
-155 -75 -213 -133 -68 -66 -141 -165 -141 -188 0 -7 -4 -13 -10 -13 -5 0 -10
-6 -10 -14 0 -10 -21 -15 -77 -18 -72 -5 -78 -7 -108 -40 -65 -71 -99 -222
-68 -300 9 -23 12 -43 7 -46 -5 -4 -18 -24 -29 -45 l-20 -38 -55 7 c-80 9 -84
16 -81 177 1 48 5 61 26 80 23 21 25 29 29 142 3 66 6 129 9 140 6 33 35 91
52 105 9 7 23 26 30 41 13 23 12 34 -1 79 -9 29 -28 65 -45 81 -16 15 -36 45
-45 66 -22 53 -73 93 -124 97 -93 7 -323 -102 -399 -190 -42 -48 -41 -66 10
-179 20 -45 19 -86 -6 -160 -24 -76 -30 -159 -11 -177 9 -10 16 -38 17 -73 2
-38 12 -77 30 -115 24 -52 27 -69 28 -167 0 -112 2 -138 14 -149 4 -4 7 -14 7
-22 0 -8 12 -40 26 -70 21 -45 23 -57 12 -63 -13 -7 -118 -89 -163 -127 -55
-46 -202 -153 -328 -239 -134 -91 -359 -254 -383 -277 -6 -6 -36 -31 -65 -56
-73 -61 -216 -204 -264 -265 -22 -27 -43 -52 -46 -55 -17 -15 -95 -143 -124
-204 -36 -76 -70 -184 -62 -193 3 -3 18 4 34 14 37 26 106 57 184 84 84 28
199 30 249 4 40 -21 140 -122 161 -163 22 -43 89 -153 123 -202 93 -137 232
-254 325 -275 l32 -7 -21 -31 c-40 -62 -70 -126 -76 -168 -5 -28 -18 -53 -42
-78 -104 -106 -169 -241 -142 -291 16 -30 83 -43 185 -37 108 7 132 12 210 39
113 39 170 84 190 148 4 14 31 45 58 70 28 25 71 64 95 88 42 42 43 44 37 92
l-6 49 58 -30 c33 -16 78 -31 105 -33 52 -3 78 -19 78 -46 0 -28 38 -69 88
-94 53 -26 155 -59 322 -104 220 -60 285 -66 355 -36 22 9 58 16 80 15 22 0
54 3 70 7 24 7 36 4 63 -16 49 -37 113 -41 160 -9 l39 25 94 -22 c102 -24 97
-17 84 -97 -4 -26 -1 -40 10 -49 14 -12 13 -17 -13 -44 -16 -17 -34 -45 -40
-63 -9 -26 -7 -34 8 -51 17 -18 108 -58 151 -67 8 -2 38 -10 65 -18 27 -8 52
-15 57 -15 4 0 31 -5 60 -11 103 -20 134 -23 259 -26 88 -2 132 1 144 9 44 32
-34 136 -157 209 -81 48 -84 55 -46 117 25 40 32 76 18 85 -12 7 -4 30 20 65
10 14 20 37 23 53 5 31 19 46 61 67 17 8 53 31 80 50 49 35 52 36 140 34 120
-1 205 30 282 103 7 6 44 32 82 57 121 81 154 55 126 -99 -2 -11 -4 -21 -5
-22 -2 -2 -3 -6 -4 -10 -10 -50 -122 -232 -181 -295 -14 -15 -25 -29 -25 -32
0 -6 115 36 193 71 65 29 174 89 193 107 7 6 24 20 39 31 80 57 126 193 126
365 -1 91 -4 127 -15 175 -2 6 -6 28 -11 50 -9 48 -35 101 -82 169 -40 57
-168 212 -195 237 -10 9 -18 20 -18 25 0 5 -14 22 -30 38 -31 30 -145 194
-194 278 l-27 46 55 16 c30 9 59 16 65 16 23 0 100 88 106 122 20 114 23 222
6 242 -8 10 -6 24 8 57 23 50 23 50 -50 131 -88 99 -129 138 -144 138 -8 0
-15 5 -15 10 0 6 -9 19 -19 29 -11 11 -21 36 -24 56 -6 45 -28 70 -92 103
-122 64 -195 73 -273 33 -58 -29 -71 -55 -88 -165 -3 -22 -10 -50 -15 -63 -10
-26 -37 -31 -45 -8 -4 8 -15 15 -25 15 -18 0 -18 2 -6 33 13 29 16 119 6 157
-2 8 2 14 9 15 29 1 80 66 93 118 37 155 -18 292 -126 313 -20 3 -37 9 -39 13
-2 3 -7 49 -11 101 -4 52 -11 103 -16 112 -5 10 -8 18 -5 18 8 0 -29 101 -53
145 -55 104 -161 195 -283 245 l-57 23 5 41 c11 89 40 160 81 197 72 68 109
58 99 -24 -3 -27 -13 -61 -23 -75 -52 -73 -53 -74 -38 -102 18 -36 57 -30 89
14 33 43 44 92 44 190 -1 119 -31 182 -107 220 -62 33 -143 39 -216 16z"/>
</g>
</svg>
